<svg width="24" height="24" viewBox="0 0 24 24" fill="none" xmlns="http://www.w3.org/2000/svg">
<path d="M18.5395 15.1037C18.4051 15.238 18.2213 15.3229 18.0091 15.3229C17.599 15.3229 17.2596 14.9835 17.2596 14.5734L17.2596 6.73861L9.42486 6.73861C9.01474 6.73861 8.67533 6.3992 8.67533 5.98907C8.67533 5.57895 9.01474 5.23954 9.42486 5.23954L18.0091 5.23954C18.4193 5.23954 18.7587 5.57895 18.7587 5.98907L18.7587 14.5734C18.7587 14.7855 18.6738 14.9693 18.5395 15.1037Z" fill="white"/>
<path d="M18.4193 6.63961L6.51866 18.5402C6.22875 18.8301 5.74792 18.8301 5.458 18.5402C5.16809 18.2503 5.16809 17.7695 5.458 17.4796L17.3586 5.57895C17.6485 5.28904 18.1294 5.28904 18.4193 5.57895C18.7092 5.86886 18.7092 6.3497 18.4193 6.63961Z" fill="white"/>
</svg>
