<svg width="32" height="32" viewBox="0 0 32 32" fill="none" xmlns="http://www.w3.org/2000/svg">
<path d="M16 2.66666C8.64002 2.66666 2.66669 8.63999 2.66669 16C2.66669 23.36 8.64002 29.3333 16 29.3333C23.36 29.3333 29.3334 23.36 29.3334 16C29.3334 8.63999 23.36 2.66666 16 2.66666ZM20.7067 17.3733L16.7067 21.3733C16.5067 21.5733 16.2534 21.6667 16 21.6667C15.7467 21.6667 15.4934 21.5733 15.2934 21.3733L11.2934 17.3733C10.9067 16.9867 10.9067 16.3467 11.2934 15.96C11.68 15.5733 12.32 15.5733 12.7067 15.96L15 18.2533V11.3333C15 10.7867 15.4534 10.3333 16 10.3333C16.5467 10.3333 17 10.7867 17 11.3333V18.2533L19.2934 15.96C19.68 15.5733 20.32 15.5733 20.7067 15.96C21.0934 16.3467 21.0934 16.9867 20.7067 17.3733Z" fill="white"/>
</svg>
