<svg width="65" height="46" viewBox="0 0 65 46" fill="none" xmlns="http://www.w3.org/2000/svg">
<path d="M47.3451 13.8559C45.4978 17.7175 43.6728 21.5927 41.987 25.5175C40.3643 29.2977 38.184 32.7423 35.6293 35.9995C34.7745 37.0901 33.7882 38.047 32.6246 38.819C28.6011 41.4886 24.1673 42.7859 19.4339 42.8652C15.1839 42.9352 11.052 42.3255 7.12511 40.8417C6.98614 40.7891 6.84587 40.6966 6.62565 40.8577C6.67337 41.2664 6.97464 41.5813 7.17457 41.937C7.51542 42.543 7.89178 43.129 8.22986 43.7366C8.42737 44.0912 8.49314 44.4873 8.16884 44.8318C7.8353 45.1853 7.42408 45.0939 7.04539 44.9616C6.39581 44.7364 5.86998 44.321 5.42612 43.8344C3.96702 42.229 2.60673 40.5471 1.51107 38.6713C1.25669 38.2338 1.0689 37.7675 0.946703 37.2767C0.640624 36.038 1.26569 35.0857 2.56658 34.8242C2.88121 34.7609 3.20857 34.7447 3.52749 34.7452C5.21339 34.7461 6.90083 34.7466 8.58564 34.7707C10.0331 34.7914 11.464 34.94 12.8697 35.2301C13.3072 35.3201 13.7587 35.4718 13.7548 36.0075C13.751 36.5527 13.2791 36.7168 12.8443 36.8291C11.9749 37.054 11.0877 37.0757 10.2022 37.1035C9.53557 37.1246 8.86297 37.0665 8.11313 37.2665C8.38798 37.7175 8.80123 37.7716 9.1564 37.882C12.0409 38.7832 15.0166 39.2496 18.0817 39.3567C22.6871 39.5167 26.949 38.4045 30.8546 35.8033C31.5057 35.3697 32.1052 34.8937 32.5941 34.2918C34.6344 31.7774 36.6156 29.2263 37.9831 26.2991C39.9152 22.1673 42.0103 18.1079 44.0249 14.0126C45.5995 10.8106 47.6773 7.96903 50.2082 5.41077C51.7718 3.82969 53.5662 2.60426 55.6877 1.86411C57.8199 1.12043 59.9782 0.644682 62.2198 0.836752C62.7397 0.881125 63.2636 0.926391 63.6903 1.24213C63.9189 1.41236 64.0727 1.63789 63.9707 1.9472C63.8543 2.30058 63.5637 2.27394 63.274 2.2612C61.6015 2.1863 59.9858 2.59553 58.4046 3.11452C56.8278 3.63181 55.241 4.17258 53.9327 5.28043C51.0936 7.68429 48.9155 10.5715 47.3451 13.8559Z" fill="#00A991"/>
</svg>
