<svg width="29" height="32" viewBox="0 0 29 32" fill="none" xmlns="http://www.w3.org/2000/svg">
<path d="M13 2.66663C5.65333 2.66663 -0.333333 8.65329 -0.333333 16C-0.333333 23.3466 5.65333 29.3333 13 29.3333C20.3467 29.3333 26.3333 23.3466 26.3333 16C26.3333 8.65329 20.3467 2.66663 13 2.66663ZM19.3733 12.9333L11.8133 20.4933C11.6267 20.68 11.3733 20.7866 11.1067 20.7866C10.84 20.7866 10.5867 20.68 10.4 20.4933L6.62667 16.72C6.24 16.3333 6.24 15.6933 6.62667 15.3066C7.01333 14.92 7.65333 14.92 8.04 15.3066L11.1067 18.3733L17.96 11.52C18.3467 11.1333 18.9867 11.1333 19.3733 11.52C19.76 11.9066 19.76 12.5333 19.3733 12.9333Z" fill="#00A991"/>
</svg>
