<svg width="99" height="20" viewBox="0 0 99 20" fill="none" xmlns="http://www.w3.org/2000/svg">
<path d="M0.296 0.399999H3.992V16.472H12.896V20H0.296V0.399999ZM17.1605 0.399999H30.2645V3.928H25.5605V16.472H30.2645V20H17.1605V16.472H21.8645V3.928H17.1605V0.399999ZM32.9051 0.399999H39.4011L40.5211 15.128V17.984H41.1931V15.128L42.3131 0.399999H48.8091V20H45.4491V6.896L45.7851 2.416H45.1131L43.6571 20H38.1131L36.6011 2.416H35.9291L36.2651 6.896V20H32.9051V0.399999ZM61.3336 15.8H54.6696L53.7176 20H49.8536L54.5296 0.399999H61.4736L66.1496 20H62.2856L61.3336 15.8ZM55.4536 12.272H60.5216L58.2536 2.248H57.7496L55.4536 12.272ZM77.8061 18.152H78.3101V0.399999H82.0061V20H74.7821L72.4861 2.248H71.9821V20H68.2861V0.399999H75.5101L77.8061 18.152ZM85.7387 0.399999H98.8427V3.928H94.1387V16.472H98.8427V20H85.7387V16.472H90.4427V3.928H85.7387V0.399999Z" fill="white"/>
</svg>
