<svg width="152" height="39" viewBox="0 0 152 39" fill="none" xmlns="http://www.w3.org/2000/svg">
<path d="M16.4992 2H37.5808L22.0816 24.9729H1L16.4992 2Z" fill="#00A991"/>
<path d="M17.4224 27.102L11.4192 36H33.5008L49 13.0271H32.7024L23.2064 27.102H17.4224Z" fill="#0C756D"/>
<path d="M64.968 11.2H68.136V24.976H75.768V28H64.968V11.2Z" fill="#0C756D"/>
<path d="M80.2633 25.12H84.2953V18.976H80.5513V16.096H87.3193V25.12H90.7753V28H80.2633V25.12Z" fill="#0C756D"/>
<path d="M107.175 28H104.151V19.648C104.151 19.312 104.063 19.064 103.887 18.904C103.727 18.728 103.511 18.64 103.239 18.64C102.919 18.64 102.663 18.736 102.471 18.928C102.295 19.12 102.207 19.408 102.207 19.792V28H99.1826V19.648C99.1826 19.312 99.0866 19.064 98.8946 18.904C98.7186 18.728 98.5026 18.64 98.2466 18.64C97.9586 18.64 97.7186 18.736 97.5266 18.928C97.3346 19.12 97.2386 19.408 97.2386 19.792V28H94.2146V16.096H97.2386V17.248H97.6706C97.7666 16.816 97.9826 16.464 98.3186 16.192C98.6706 15.904 99.1266 15.76 99.6866 15.76C100.215 15.76 100.663 15.904 101.031 16.192C101.399 16.464 101.647 16.816 101.775 17.248H102.207C102.335 16.816 102.599 16.464 102.999 16.192C103.415 15.904 103.927 15.76 104.535 15.76C105.335 15.76 105.975 16.032 106.455 16.576C106.935 17.104 107.175 17.84 107.175 18.784V28Z" fill="#0C756D"/>
<path d="M118.102 26.272C117.782 27.024 117.334 27.56 116.758 27.88C116.182 28.184 115.51 28.336 114.742 28.336C114.022 28.336 113.342 28.2 112.702 27.928C112.078 27.656 111.526 27.256 111.046 26.728C110.566 26.2 110.182 25.56 109.894 24.808C109.622 24.056 109.486 23.2 109.486 22.24V21.856C109.486 20.912 109.622 20.064 109.894 19.312C110.166 18.56 110.534 17.92 110.998 17.392C111.462 16.864 111.998 16.464 112.606 16.192C113.23 15.904 113.894 15.76 114.598 15.76C115.446 15.76 116.126 15.904 116.638 16.192C117.166 16.48 117.582 16.928 117.886 17.536H118.318V16.096H121.342V24.4C121.342 24.88 121.558 25.12 121.99 25.12H122.446V28H120.382C119.838 28 119.39 27.84 119.038 27.52C118.702 27.2 118.534 26.784 118.534 26.272H118.102ZM115.414 25.456C116.294 25.456 116.998 25.168 117.526 24.592C118.054 24 118.318 23.2 118.318 22.192V21.904C118.318 20.896 118.054 20.104 117.526 19.528C116.998 18.936 116.294 18.64 115.414 18.64C114.534 18.64 113.83 18.936 113.302 19.528C112.774 20.104 112.51 20.896 112.51 21.904V22.192C112.51 23.2 112.774 24 113.302 24.592C113.83 25.168 114.534 25.456 115.414 25.456Z" fill="#0C756D"/>
<path d="M128.597 28H125.573V16.096H128.597V17.872H129.029C129.301 17.2 129.741 16.68 130.349 16.312C130.957 15.944 131.669 15.76 132.485 15.76C133.061 15.76 133.597 15.856 134.093 16.048C134.605 16.224 135.053 16.504 135.437 16.888C135.821 17.272 136.117 17.76 136.325 18.352C136.549 18.944 136.661 19.648 136.661 20.464V28H133.637V21.232C133.637 20.384 133.429 19.72 133.013 19.24C132.613 18.744 132.029 18.496 131.261 18.496C130.365 18.496 129.693 18.8 129.245 19.408C128.813 20 128.597 20.8 128.597 21.808V28Z" fill="#0C756D"/>
<path d="M140.965 25.12H144.997V18.976H141.253V16.096H148.021V25.12H151.477V28H140.965V25.12Z" fill="#0C756D"/>
<circle cx="145" cy="11" r="3" fill="#00A991"/>
<circle cx="84" cy="11" r="3" fill="#00A991"/>
</svg>
