<svg width="32" height="32" viewBox="0 0 32 32" fill="none" xmlns="http://www.w3.org/2000/svg">
<path d="M29.9456 8.01652C28.9195 8.47165 27.8165 8.77924 26.6592 8.91754C27.8404 8.20936 28.7479 7.08798 29.1751 5.75172C28.0693 6.40753 26.8448 6.88372 25.5413 7.14028C24.4976 6.02817 23.0105 5.33334 21.3647 5.33334C18.2045 5.33334 15.6423 7.8953 15.6423 11.0554C15.6423 11.5039 15.6929 11.9406 15.7905 12.3595C11.0348 12.1208 6.81836 9.84272 3.99614 6.38069C3.50356 7.22581 3.22137 8.20876 3.22137 9.25746C3.22137 11.2427 4.23154 12.9942 5.767 14.0204C4.82908 13.9905 3.94664 13.7332 3.17521 13.3046C3.17466 13.3285 3.17466 13.3524 3.17466 13.3765C3.17466 16.1491 5.14713 18.4617 7.76481 18.9875C7.28468 19.1183 6.77914 19.1883 6.25728 19.1883C5.88856 19.1883 5.53009 19.1523 5.18064 19.0856C5.90884 21.3588 8.02206 23.0133 10.5261 23.0593C8.5677 24.5943 6.10038 25.5091 3.4194 25.5091C2.95752 25.5091 2.50204 25.4819 2.05438 25.4289C4.58673 27.0525 7.59457 28 10.826 28C21.3512 28 27.1069 19.2807 27.1069 11.7189C27.1069 11.4709 27.1013 11.2241 27.0903 10.9786C28.2084 10.1718 29.1785 9.16404 29.9456 8.01652Z" fill="#D8E1E8"/>
</svg>
